<svg xmlns="http://www.w3.org/2000/svg" width="43" height="43" fill="none"><rect width="42.528" height="42.528" x=".473" fill="#F2F2F2" rx="5"/><path stroke="#4F4F4F" stroke-width="2.3" d="M15.642 20.159c0-3.02 0-4.53.938-5.469.938-.938 2.449-.938 5.469-.938h3.203c3.02 0 4.53 0 5.47.938.937.938.937 2.448.937 5.469v5.339c0 3.02 0 4.53-.938 5.469-.938.938-2.448.938-5.469.938H22.05c-3.02 0-4.53 0-5.469-.938-.938-.939-.938-2.449-.938-5.47V20.16Z"/><path stroke="#4F4F4F" stroke-width="2.3" d="M15.017 28.076a3.203 3.203 0 0 1-3.204-3.203v-6.407c0-4.027 0-6.04 1.251-7.292 1.251-1.25 3.265-1.25 7.292-1.25h4.271a3.203 3.203 0 0 1 3.204 3.203"/></svg>