<svg xmlns="http://www.w3.org/2000/svg" width="44" height="43" fill="none"><path fill="#1877F2" d="M36.75 0H7.514A6.645 6.645 0 0 0 .868 6.645v29.238a6.645 6.645 0 0 0 6.645 6.645h29.238a6.645 6.645 0 0 0 6.645-6.645V6.645A6.645 6.645 0 0 0 36.75 0Z"/><path fill="#fff" d="M32.764 21.264c0-5.848-4.785-10.632-10.632-10.632-5.848 0-10.632 4.784-10.632 10.632 0 5.316 3.854 9.701 8.904 10.499V24.32h-2.658v-3.056h2.658v-2.392c0-2.658 1.595-4.12 3.987-4.12 1.196 0 2.392.265 2.392.265v2.658h-1.329c-1.329 0-1.727.798-1.727 1.595v1.994h2.923l-.531 3.056h-2.525v7.576a10.726 10.726 0 0 0 9.17-10.632Z"/></svg>