<svg xmlns="http://www.w3.org/2000/svg" width="25" height="25" fill="none"><path fill="#1DBF73" d="M10.938 11.719a1.562 1.562 0 1 1-3.125 0 1.562 1.562 0 0 1 3.125 0Zm11.718-6.25V19.53a1.562 1.562 0 0 1-1.562 1.563H3.906a1.563 1.563 0 0 1-1.562-1.563V5.47a1.562 1.562 0 0 1 1.562-1.563h17.188a1.562 1.562 0 0 1 1.562 1.563Zm-9.4 10.742a3.883 3.883 0 0 0-1.678-2.28 3.125 3.125 0 1 0-4.406 0 3.89 3.89 0 0 0-1.679 2.28.782.782 0 0 0 1.514.39c.258-1 1.275-1.757 2.368-1.757s2.111.755 2.368 1.758a.782.782 0 1 0 1.514-.391Zm6.275-2.148a.781.781 0 0 0-.781-.782h-3.906a.781.781 0 0 0 0 1.563h3.906a.781.781 0 0 0 .781-.781Zm0-3.126a.781.781 0 0 0-.781-.78h-3.906a.781.781 0 0 0 0 1.562h3.906a.781.781 0 0 0 .781-.781Z"/></svg>