<svg xmlns="http://www.w3.org/2000/svg" width="43" height="43" fill="none"><path fill="#2867B2" d="M35.883 0H6.645A6.645 6.645 0 0 0 0 6.645v29.238a6.645 6.645 0 0 0 6.645 6.645h29.238a6.645 6.645 0 0 0 6.645-6.645V6.645A6.645 6.645 0 0 0 35.883 0Z"/><path fill="#fff" d="M15.416 31.896h-4.518v-14.22h4.518v14.22Zm-2.26-16.214c-1.461 0-2.524-1.063-2.524-2.525s1.196-2.525 2.525-2.525c1.462 0 2.525 1.063 2.525 2.525s-1.063 2.525-2.525 2.525Zm18.74 16.214h-4.519v-7.709c0-2.259-.93-2.923-2.26-2.923-1.328 0-2.657 1.063-2.657 3.056v7.576H17.94v-14.22h4.253v1.993c.399-.93 1.994-2.392 4.253-2.392 2.525 0 5.183 1.462 5.183 5.847v8.772h.266Z"/></svg>