<svg xmlns="http://www.w3.org/2000/svg" width="44" height="43" fill="none"><path fill="#1DA1F2" d="M36.487 0H7.249A6.645 6.645 0 0 0 .604 6.645v29.238a6.645 6.645 0 0 0 6.645 6.645h29.238a6.645 6.645 0 0 0 6.645-6.645V6.645A6.645 6.645 0 0 0 36.487 0Z"/><path fill="#fff" d="M32.5 14.619c-.797.398-1.595.531-2.525.664.93-.531 1.595-1.329 1.86-2.392-.797.532-1.727.797-2.79 1.063-.798-.797-1.994-1.329-3.19-1.329-2.79 0-4.917 2.658-4.253 5.316-3.588-.133-6.777-1.86-9.037-4.518-1.196 1.993-.531 4.518 1.33 5.847-.665 0-1.33-.266-1.994-.531 0 1.993 1.462 3.854 3.455 4.385-.664.133-1.329.266-1.993.133.531 1.728 2.126 3.057 4.12 3.057-1.595 1.196-3.987 1.86-6.247 1.595 1.994 1.196 4.253 1.993 6.645 1.993 8.107 0 12.626-6.778 12.36-13.024a6.141 6.141 0 0 0 2.26-2.26Z"/></svg>