<svg xmlns="http://www.w3.org/2000/svg" width="44" height="43" fill="none"><path fill="#25D366" d="M36.619 0H7.38A6.645 6.645 0 0 0 .736 6.645v29.238a6.645 6.645 0 0 0 6.645 6.645H36.62a6.645 6.645 0 0 0 6.645-6.645V6.645A6.645 6.645 0 0 0 36.619 0Z"/><path fill="#fff" fill-rule="evenodd" d="M29.442 13.688c-1.993-1.993-4.651-3.056-7.442-3.056-5.848 0-10.632 4.784-10.632 10.632 0 1.86.532 3.72 1.462 5.316l-1.462 5.316 5.582-1.462c1.595.797 3.322 1.329 5.05 1.329 5.848 0 10.632-4.785 10.632-10.632 0-2.791-1.196-5.449-3.19-7.443ZM22 30.035c-1.595 0-3.19-.399-4.518-1.196l-.266-.133-3.323.93.93-3.19-.265-.398c-.93-1.462-1.33-3.057-1.33-4.651 0-4.785 3.988-8.772 8.772-8.772 2.392 0 4.519.93 6.246 2.525 1.728 1.728 2.525 3.854 2.525 6.247 0 4.651-3.854 8.638-8.771 8.638Zm4.784-6.645c-.265-.133-1.594-.797-1.86-.797-.266-.133-.399-.133-.532.133-.133.265-.664.797-.797 1.063-.133.133-.266.133-.532.133-.266-.133-1.063-.399-2.126-1.33-.797-.664-1.33-1.594-1.462-1.86-.133-.266 0-.399.133-.531l.399-.4c.133-.132.133-.265.265-.398.133-.133 0-.266 0-.399s-.531-1.461-.797-1.993c-.133-.399-.399-.399-.532-.399h-.531c-.133 0-.399 0-.665.266-.265.266-.93.93-.93 2.26 0 1.328.93 2.524 1.063 2.79.133.133 1.86 2.924 4.519 3.987 2.259.93 2.658.665 3.19.665.53 0 1.594-.665 1.727-1.196.266-.665.266-1.197.133-1.197-.133-.664-.399-.664-.665-.797Z" clip-rule="evenodd"/></svg>